<svg xmlns="http://www.w3.org/2000/svg" width="100" height="30" fill="none" viewBox="0 0 100 30">
  <path fill="#000" d="M100 29.12h-4.22V.38H100v28.74Zm-42.329 0L62.947.38h3.756l7.892 20.975h.127L82.614.379h3.756l5.276 28.741h-4.432l-2.321-13.674c-.338-1.97-.619-3.91-.844-5.824a67.584 67.584 0 0 1-.422-5.824h1.055c-.506 2.335-1.041 4.39-1.604 6.162a90.26 90.26 0 0 1-1.857 5.486l-4.938 13.21h-3.25l-4.937-13.21a144.458 144.458 0 0 1-1.9-5.486c-.534-1.773-1.055-3.827-1.56-6.162h1.054a67.544 67.544 0 0 1-.422 5.824 111.717 111.717 0 0 1-.844 5.824L62.103 29.12H57.67Z"/>
  <path fill="#BC002D" d="M26.118 14.771c0-2.138.365-4.107 1.097-5.908a14.21 14.21 0 0 1 3.165-4.685 14.462 14.462 0 0 1 4.727-3.08C36.936.365 38.92 0 41.057 0c2.111 0 4.067.366 5.867 1.097 1.801.732 3.362 1.759 4.685 3.081a13.685 13.685 0 0 1 3.123 4.685c.76 1.8 1.14 3.77 1.14 5.908 0 2.11-.38 4.066-1.14 5.867a14.135 14.135 0 0 1-3.123 4.727c-1.323 1.322-2.884 2.349-4.685 3.08-1.8.732-3.756 1.098-5.866 1.098-2.138 0-4.122-.366-5.95-1.097a14.463 14.463 0 0 1-4.728-3.081 14.69 14.69 0 0 1-3.165-4.727c-.732-1.8-1.097-3.756-1.097-5.867Z"/>
  <path fill="#000" d="M5.402 18.443h15.489v3.967H5.402v-3.967ZM0 29.12 10.256.38h5.74L26.25 29.12h-4.305l-9.2-25.786h.76L4.304 29.12H0Z"/>
</svg>
